<svg xmlns="http://www.w3.org/2000/svg" width="163.839" height="163.839" fill-rule="evenodd" clip-rule="evenodd" image-rendering="optimizeQuality" shape-rendering="geometricPrecision" text-rendering="geometricPrecision" viewBox="0 0 1707 1707" id="education">
  <path fill-rule="nonzero" d="M571 1452l-476 180c50,28 164,67 338,-9l67 -30c209,-91 286,-125 422,-60 137,65 135,146 207,92 21,-16 45,16 24,32 -107,79 -111,-23 -248,-88 -143,-68 -249,0 -456,90 -266,116 -410,-17 -411,-17 -6,-6 -8,-15 -5,-23 29,-72 180,-506 190,-516l1031 -1031c153,-154 421,-47 421,174 0,64 -24,127 -72,175l-1032 1031zm770 -964c19,-19 47,9 28,28l-747 747c-18,18 -47,-10 -28,-28l747 -747zm-91 -91c19,-19 47,9 28,28l-747 747c-18,18 -47,-10 -28,-28l747 -747zm-91 -91c19,-19 47,9 28,28l-747 747c-18,18 -47,-10 -28,-29l747 -746zm114 -197l292 293c46,-46 70,-92 70,-156 0,-185 -224,-274 -353,-146l-9 9zm264 321l-292 -292 -26 26 292 292 26 -26zm-54 54l-293 -292 -911 911c114,28 64,146 105,188 29,29 120,12 162,54l0 0c13,13 21,31 25,51l912 -912zm-1335 937l109 108 279 -104c-3,-22 -8,-42 -18,-52l0 0c-30,-29 -121,-12 -162,-54 -43,-43 -24,-132 -55,-163 -11,-10 -35,-15 -51,-17l-102 282zm67 123l-82 -82 -48 131 130 -49z"></path>
</svg>
